<?xml version="1.0" standalone="no"?>
<!DOCTYPE svg PUBLIC "-//W3C//DTD SVG 20010904//EN"
 "http://www.w3.org/TR/2001/REC-SVG-20010904/DTD/svg10.dtd">
<svg version="1.0" xmlns="http://www.w3.org/2000/svg"
 width="512.000000pt" height="512.000000pt" viewBox="0 0 512.000000 512.000000"
 preserveAspectRatio="xMidYMid meet">

<g transform="translate(0.000000,512.000000) scale(0.100000,-0.100000)"
fill="#000000" stroke="none">
<path d="M2593 5066 c-49 -42 -49 -63 6 -240 57 -182 69 -201 137 -201 58 0
94 36 94 93 0 52 -85 321 -108 344 -10 11 -37 22 -59 25 -32 4 -44 0 -70 -21z"/>
<path d="M1942 4935 c-54 -24 -71 -90 -37 -146 6 -9 116 -85 245 -168 189
-121 242 -151 270 -151 91 1 131 114 62 172 -49 41 -456 296 -482 302 -14 3
-40 -1 -58 -9z"/>
<path d="M3545 4615 c-357 -95 -679 -181 -715 -191 -76 -21 -110 -51 -110
-101 0 -25 99 -422 146 -584 4 -15 -4 -14 -78 3 -46 11 -337 80 -648 155 -611
146 -618 147 -713 105 -52 -23 -110 -78 -136 -130 -10 -20 -38 -120 -61 -222
-24 -102 -47 -189 -51 -194 -4 -4 -95 12 -202 38 -239 57 -290 62 -384 43
-103 -22 -176 -61 -254 -135 -103 -96 -124 -147 -209 -507 -146 -609 -144
-599 -115 -724 34 -143 137 -272 268 -335 49 -24 136 -50 275 -83 l203 -47 -6
-36 c-21 -113 -103 -306 -196 -462 l-53 -88 -47 0 c-102 0 -191 -56 -236 -148
-68 -138 -8 -303 132 -364 73 -32 2394 -581 2460 -582 117 -2 224 79 256 192
15 52 7 148 -15 191 -26 50 -82 106 -124 125 -38 17 -40 20 -46 78 -11 107 -6
330 9 428 8 52 54 261 103 464 l87 369 60 17 c154 42 260 143 305 289 17 54
20 92 20 267 0 112 2 204 4 204 2 0 45 -30 94 -67 50 -38 164 -112 256 -166
l165 -99 15 -51 c8 -29 50 -182 92 -342 75 -277 78 -295 79 -400 0 -128 -22
-208 -85 -315 -63 -106 -177 -228 -269 -288 -30 -20 -51 -69 -44 -105 7 -35
57 -77 93 -77 15 0 290 70 611 155 546 145 586 157 612 185 32 36 35 72 7 117
-21 35 -24 36 -140 54 -165 25 -325 97 -429 194 -81 76 -133 155 -165 253 -32
99 -176 642 -176 665 0 10 39 86 87 170 155 269 221 443 264 693 27 160 29
387 5 545 -9 59 -67 299 -130 534 -122 458 -126 469 -191 479 -20 4 -253 -54
-680 -169z m686 -395 c101 -379 117 -450 126 -555 l6 -75 -507 0 c-444 0 -511
2 -538 16 -17 9 -73 26 -125 39 -53 13 -97 26 -99 28 -5 5 -155 569 -152 572
9 8 1166 313 1182 312 16 -2 32 -51 107 -337z m-2112 -525 c1181 -281 1104
-261 1128 -290 l23 -26 0 -563 0 -564 -28 -53 c-70 -135 -256 -160 -357 -48
-20 22 -41 52 -48 67 -8 19 -13 140 -17 387 l-5 360 -27 50 c-90 170 -296 214
-446 96 -67 -54 -103 -127 -109 -224 -6 -98 -9 -110 -38 -139 -51 -52 -136
-40 -175 24 -18 30 -20 50 -20 244 0 183 -3 220 -20 275 -44 142 -166 237
-331 257 -130 16 -180 60 -187 163 -4 54 -2 60 26 89 17 16 38 30 48 30 10 0
272 -61 583 -135z m-661 -303 c46 -24 85 -35 142 -42 82 -9 124 -25 151 -56
41 -47 44 -64 49 -309 5 -238 5 -240 33 -292 61 -117 161 -178 287 -177 119 1
217 60 274 164 23 42 30 70 36 146 5 71 11 99 26 115 29 32 62 41 101 28 61
-20 63 -30 63 -397 0 -300 2 -336 20 -393 34 -109 112 -204 211 -255 l36 -19
-73 -305 c-127 -525 -127 -526 -133 -775 l-6 -220 -910 217 c-500 120 -942
225 -981 233 l-72 16 50 87 c93 161 151 311 207 537 48 196 411 1720 411 1729
0 9 -3 10 78 -32z m2896 -49 c-19 -156 -73 -352 -132 -481 -41 -91 -176 -331
-186 -332 -16 0 -278 162 -355 220 -42 32 -106 88 -143 126 l-68 67 0 224 0
223 445 0 445 0 -6 -47z m-3440 -40 c111 -25 205 -50 209 -54 9 -7 -299 -1326
-313 -1342 -9 -10 -374 78 -433 105 -96 44 -177 168 -177 270 0 60 188 844
215 899 38 75 120 139 202 158 65 15 91 12 297 -36z m3575 -2083 c18 -12 56
-35 84 -51 l51 -27 -55 -16 c-136 -38 -349 -93 -349 -89 0 3 9 17 20 33 30 42
99 190 106 227 l6 33 52 -43 c28 -24 66 -54 85 -67z m-2936 -556 c590 -140
1121 -267 1181 -281 65 -15 116 -33 127 -44 41 -41 10 -113 -49 -112 -30 0
-2331 547 -2373 564 -30 12 -51 50 -42 76 11 32 35 53 60 53 13 0 506 -115
1096 -256z"/>
<path d="M1544 2687 c-24 -21 -37 -66 -145 -523 -66 -274 -137 -552 -159 -616
-22 -64 -40 -126 -40 -138 0 -31 62 -90 94 -90 103 0 124 58 302 800 82 344
114 493 109 517 -13 68 -105 97 -161 50z"/>
<path d="M1969 2291 c-40 -40 -40 -89 0 -133 24 -27 36 -33 71 -33 35 0 47 6
72 34 26 29 30 39 25 75 -12 84 -108 117 -168 57z"/>
<path d="M2434 2035 c-30 -20 -36 -40 -103 -325 -75 -319 -93 -416 -95 -508
-1 -69 1 -75 27 -98 40 -35 99 -33 136 4 24 24 29 42 44 147 9 66 46 243 82
394 36 151 65 290 65 309 0 49 -45 92 -97 92 -21 0 -48 -7 -59 -15z"/>
<path d="M1911 1927 c-13 -6 -32 -23 -42 -37 -26 -36 -152 -565 -144 -607 12
-68 106 -97 160 -50 24 20 35 56 97 307 78 320 79 337 19 377 -38 26 -56 28
-90 10z"/>
<path d="M2215 4290 c-116 -16 -131 -20 -152 -44 -34 -40 -32 -99 6 -137 35
-34 34 -34 220 -12 131 15 148 19 175 44 25 22 31 35 31 69 0 35 -6 47 -33 71
-38 34 -57 35 -247 9z"/>
</g>
</svg>
